<svg xmlns="http://www.w3.org/2000/svg" id="lt11-tri-4-figure" width="250" height="200" viewBox="0 0 250 200">
  <defs>
    <clipPath id="lt11-tri-4-__clipPath-0">
      <rect x="5.0" y="5.0" width="240.0" height="190.0"/>
    </clipPath>
    <clipPath id="lt11-tri-4-__clipPath-1">
      <rect x="5.0" y="5.0" width="240.0" height="190.0"/>
    </clipPath>
  </defs>
  <line id="lt11-tri-4-__line-0" x1="45.0" y1="165.0" x2="198.2" y2="165.0" stroke="black" stroke-width="2" fill="none"/>
  <line id="lt11-tri-4-__line-1" x1="45.0" y1="165.0" x2="45.0" y2="36.4" stroke="black" stroke-width="2" fill="none"/>
  <line id="lt11-tri-4-__line-2" x1="45.0" y1="36.4" x2="198.2" y2="165.0" stroke="#0072CE" stroke-width="2" fill="none"/>
  <line id="lt11-tri-4-__line-3" x1="55.0" y1="165.0" x2="55.0" y2="155.0" stroke="black" stroke-width="2" fill="none"/>
  <line id="lt11-tri-4-__line-4" x1="45.0" y1="155.0" x2="55.0" y2="155.0" stroke="black" stroke-width="2" fill="none"/>
  <g id="lt11-tri-4-__label-0" transform="translate(167.0,155.0) translate(-13.0,-6.7)">
    <g id="lt11-tri-4-__g-0">
      <svg xmlns:xlink="http://www.w3.org/1999/xlink" style="vertical-align: -0.400px" width="26.000px" height="13.392px" role="img" focusable="false" viewBox="0 -718 1436.6 740" x="0.0" y="0.0">
        <defs>
          <path id="lt11-tri-4-MJX-2-TEX-N-34" d="M462 0Q444 3 333 3Q217 3 199 0H190V46H221Q241 46 248 46T265 48T279 53T286 61Q287 63 287 115V165H28V211L179 442Q332 674 334 675Q336 677 355 677H373L379 671V211H471V165H379V114Q379 73 379 66T385 54Q393 47 442 46H471V0H462ZM293 211V545L74 212L183 211H293Z"/>
          <path id="lt11-tri-4-MJX-2-TEX-N-30" d="M96 585Q152 666 249 666Q297 666 345 640T423 548Q460 465 460 320Q460 165 417 83Q397 41 362 16T301 -15T250 -22Q224 -22 198 -16T137 16T82 83Q39 165 39 320Q39 494 96 585ZM321 597Q291 629 250 629Q208 629 178 597Q153 571 145 525T137 333Q137 175 145 125T181 46Q209 16 250 16Q290 16 318 46Q347 76 354 130T362 333Q362 478 354 524T321 597Z"/>
          <path id="lt11-tri-4-MJX-2-TEX-N-2218" d="M55 251Q55 328 112 386T249 444T386 388T444 249Q444 171 388 113T250 55Q170 55 113 112T55 251ZM245 403Q188 403 142 361T96 250Q96 183 141 140T250 96Q284 96 313 109T354 135T375 160Q403 197 403 250Q403 313 360 358T245 403Z"/>
        </defs>
        <g stroke="currentColor" fill="currentColor" stroke-width="0" transform="scale(1,-1)">
          <g data-mml-node="math">
            <g data-mml-node="msup" data-semantic-type="superscript" data-semantic-role="integer" data-semantic-id="2" data-semantic-children="0,1" data-semantic-speech="40 Superscript ring">
              <g data-mml-node="mn" data-semantic-type="number" data-semantic-role="integer" data-semantic-font="normal" data-semantic-annotation="clearspeak:simple" data-semantic-id="0" data-semantic-parent="2" data-semantic-speech="40" data-semantic-prefix="Base">
                <use data-c="34" xlink:href="#lt11-tri-4-MJX-2-TEX-N-34"/>
                <use data-c="30" xlink:href="#lt11-tri-4-MJX-2-TEX-N-30" transform="translate(500,0)"/>
              </g>
              <g data-mml-node="mo" transform="translate(1033,404.1) scale(0.707)" data-semantic-type="operator" data-semantic-role="multiplication" data-semantic-id="1" data-semantic-parent="2" data-semantic-speech="ring" data-semantic-prefix="Exponent">
                <use data-c="2218" xlink:href="#lt11-tri-4-MJX-2-TEX-N-2218"/>
              </g>
            </g>
          </g>
        </g>
      </svg>
    </g>
  </g>
  <g id="lt11-tri-4-__label-1" transform="translate(131.0,87.0) translate(-5.2,-4.1)">
    <g id="lt11-tri-4-__g-1">
      <svg xmlns:xlink="http://www.w3.org/1999/xlink" style="vertical-align: -0.200px" width="10.352px" height="8.200px" role="img" focusable="false" viewBox="0 -442 572 453" x="0.0" y="0.0">
        <defs>
          <path id="lt11-tri-4-MJX-3-TEX-I-1D465" d="M52 289Q59 331 106 386T222 442Q257 442 286 424T329 379Q371 442 430 442Q467 442 494 420T522 361Q522 332 508 314T481 292T458 288Q439 288 427 299T415 328Q415 374 465 391Q454 404 425 404Q412 404 406 402Q368 386 350 336Q290 115 290 78Q290 50 306 38T341 26Q378 26 414 59T463 140Q466 150 469 151T485 153H489Q504 153 504 145Q504 144 502 134Q486 77 440 33T333 -11Q263 -11 227 52Q186 -10 133 -10H127Q78 -10 57 16T35 71Q35 103 54 123T99 143Q142 143 142 101Q142 81 130 66T107 46T94 41L91 40Q91 39 97 36T113 29T132 26Q168 26 194 71Q203 87 217 139T245 247T261 313Q266 340 266 352Q266 380 251 392T217 404Q177 404 142 372T93 290Q91 281 88 280T72 278H58Q52 284 52 289Z"/>
        </defs>
        <g stroke="currentColor" fill="currentColor" stroke-width="0" transform="scale(1,-1)">
          <g data-mml-node="math">
            <g data-mml-node="mi" data-semantic-type="identifier" data-semantic-role="latinletter" data-semantic-font="italic" data-semantic-annotation="clearspeak:simple" data-semantic-id="0" data-semantic-speech="x">
              <use data-c="1D465" xlink:href="#lt11-tri-4-MJX-3-TEX-I-1D465"/>
            </g>
          </g>
        </g>
      </svg>
    </g>
  </g>
</svg>
