<svg xmlns="http://www.w3.org/2000/svg" id="lt5-inv-graph-q-figure" width="270" height="270" viewBox="0 0 270 270">
  <defs>
    <clipPath id="lt5-inv-graph-q-__clipPath-0">
      <rect x="5.0" y="5.0" width="260.0" height="260.0"/>
    </clipPath>
    <clipPath id="lt5-inv-graph-q-__clipPath-1">
      <rect x="5.0" y="5.0" width="260.0" height="260.0"/>
    </clipPath>
  </defs>
  <g id="lt5-inv-graph-q-grid-axes">
    <g id="lt5-inv-graph-q-grid" stroke="#ccc" stroke-width="1">
      <line x1="5.0" y1="265.0" x2="5.0" y2="5.0"/>
      <line x1="31.0" y1="265.0" x2="31.0" y2="5.0"/>
      <line x1="57.0" y1="265.0" x2="57.0" y2="5.0"/>
      <line x1="83.0" y1="265.0" x2="83.0" y2="5.0"/>
      <line x1="109.0" y1="265.0" x2="109.0" y2="5.0"/>
      <line x1="135.0" y1="265.0" x2="135.0" y2="5.0"/>
      <line x1="161.0" y1="265.0" x2="161.0" y2="5.0"/>
      <line x1="187.0" y1="265.0" x2="187.0" y2="5.0"/>
      <line x1="213.0" y1="265.0" x2="213.0" y2="5.0"/>
      <line x1="239.0" y1="265.0" x2="239.0" y2="5.0"/>
      <line x1="265.0" y1="265.0" x2="265.0" y2="5.0"/>
      <line x1="5.0" y1="265.0" x2="265.0" y2="265.0"/>
      <line x1="5.0" y1="239.0" x2="265.0" y2="239.0"/>
      <line x1="5.0" y1="213.0" x2="265.0" y2="213.0"/>
      <line x1="5.0" y1="187.0" x2="265.0" y2="187.0"/>
      <line x1="5.0" y1="161.0" x2="265.0" y2="161.0"/>
      <line x1="5.0" y1="135.0" x2="265.0" y2="135.0"/>
      <line x1="5.0" y1="109.0" x2="265.0" y2="109.0"/>
      <line x1="5.0" y1="83.0" x2="265.0" y2="83.0"/>
      <line x1="5.0" y1="57.0" x2="265.0" y2="57.0"/>
      <line x1="5.0" y1="31.0" x2="265.0" y2="31.0"/>
      <line x1="5.0" y1="5.0" x2="265.0" y2="5.0"/>
    </g>
    <g id="lt5-inv-graph-q-axes" stroke="black" stroke-width="2">
      <line id="lt5-inv-graph-q-__line-22" x1="5.0" y1="135.0" x2="265.0" y2="135.0" stroke="black" stroke-width="2"/>
      <g>
        <line id="lt5-inv-graph-q-__line-23" x1="31.0" y1="138.0" x2="31.0" y2="132.0"/>
        <line id="lt5-inv-graph-q-__line-24" x1="83.0" y1="138.0" x2="83.0" y2="132.0"/>
        <line id="lt5-inv-graph-q-__line-25" x1="187.0" y1="138.0" x2="187.0" y2="132.0"/>
        <line id="lt5-inv-graph-q-__line-26" x1="239.0" y1="138.0" x2="239.0" y2="132.0"/>
      </g>
      <line id="lt5-inv-graph-q-__line-27" x1="135.0" y1="265.0" x2="135.0" y2="5.0" stroke="black" stroke-width="2"/>
      <g>
        <line id="lt5-inv-graph-q-__line-28" x1="132.0" y1="239.0" x2="138.0" y2="239.0"/>
        <line id="lt5-inv-graph-q-__line-29" x1="132.0" y1="187.0" x2="138.0" y2="187.0"/>
        <line id="lt5-inv-graph-q-__line-30" x1="132.0" y1="83.0" x2="138.0" y2="83.0"/>
        <line id="lt5-inv-graph-q-__line-31" x1="132.0" y1="31.0" x2="138.0" y2="31.0"/>
      </g>
    </g>
    <g id="lt5-inv-graph-q-__label-0" transform="translate(261.0,131.0) translate(-10.4,-8.2)">
      <g id="lt5-inv-graph-q-__g-0">
        <svg xmlns:xlink="http://www.w3.org/1999/xlink" style="vertical-align: -0.200px" width="10.352px" height="8.200px" role="img" focusable="false" viewBox="0 -442 572 453" x="0.0" y="0.0">
          <defs>
            <path id="lt5-inv-graph-q-MJX-2-TEX-I-1D465" d="M52 289Q59 331 106 386T222 442Q257 442 286 424T329 379Q371 442 430 442Q467 442 494 420T522 361Q522 332 508 314T481 292T458 288Q439 288 427 299T415 328Q415 374 465 391Q454 404 425 404Q412 404 406 402Q368 386 350 336Q290 115 290 78Q290 50 306 38T341 26Q378 26 414 59T463 140Q466 150 469 151T485 153H489Q504 153 504 145Q504 144 502 134Q486 77 440 33T333 -11Q263 -11 227 52Q186 -10 133 -10H127Q78 -10 57 16T35 71Q35 103 54 123T99 143Q142 143 142 101Q142 81 130 66T107 46T94 41L91 40Q91 39 97 36T113 29T132 26Q168 26 194 71Q203 87 217 139T245 247T261 313Q266 340 266 352Q266 380 251 392T217 404Q177 404 142 372T93 290Q91 281 88 280T72 278H58Q52 284 52 289Z"/>
          </defs>
          <g stroke="currentColor" fill="currentColor" stroke-width="0" transform="scale(1,-1)">
            <g data-mml-node="math">
              <g data-mml-node="mi" data-semantic-type="identifier" data-semantic-role="latinletter" data-semantic-font="italic" data-semantic-annotation="clearspeak:simple" data-semantic-id="0" data-semantic-speech="x">
                <use data-c="1D465" xlink:href="#lt5-inv-graph-q-MJX-2-TEX-I-1D465"/>
              </g>
            </g>
          </g>
        </svg>
      </g>
    </g>
    <g id="lt5-inv-graph-q-__label-1" transform="translate(139.0,9.0) translate(0.0,-0.0)">
      <g id="lt5-inv-graph-q-__g-1">
        <svg xmlns:xlink="http://www.w3.org/1999/xlink" style="vertical-align: -3.712px" width="8.872px" height="11.712px" role="img" focusable="false" viewBox="0 -442 490 647" x="0.0" y="0.0">
          <defs>
            <path id="lt5-inv-graph-q-MJX-3-TEX-I-1D466" d="M21 287Q21 301 36 335T84 406T158 442Q199 442 224 419T250 355Q248 336 247 334Q247 331 231 288T198 191T182 105Q182 62 196 45T238 27Q261 27 281 38T312 61T339 94Q339 95 344 114T358 173T377 247Q415 397 419 404Q432 431 462 431Q475 431 483 424T494 412T496 403Q496 390 447 193T391 -23Q363 -106 294 -155T156 -205Q111 -205 77 -183T43 -117Q43 -95 50 -80T69 -58T89 -48T106 -45Q150 -45 150 -87Q150 -107 138 -122T115 -142T102 -147L99 -148Q101 -153 118 -160T152 -167H160Q177 -167 186 -165Q219 -156 247 -127T290 -65T313 -9T321 21L315 17Q309 13 296 6T270 -6Q250 -11 231 -11Q185 -11 150 11T104 82Q103 89 103 113Q103 170 138 262T173 379Q173 380 173 381Q173 390 173 393T169 400T158 404H154Q131 404 112 385T82 344T65 302T57 280Q55 278 41 278H27Q21 284 21 287Z"/>
          </defs>
          <g stroke="currentColor" fill="currentColor" stroke-width="0" transform="scale(1,-1)">
            <g data-mml-node="math">
              <g data-mml-node="mi" data-semantic-type="identifier" data-semantic-role="latinletter" data-semantic-font="italic" data-semantic-annotation="clearspeak:simple" data-semantic-id="0" data-semantic-speech="y">
                <use data-c="1D466" xlink:href="#lt5-inv-graph-q-MJX-3-TEX-I-1D466"/>
              </g>
            </g>
          </g>
        </svg>
      </g>
    </g>
    <g id="lt5-inv-graph-q-__label-2" transform="translate(31.0,146.0) translate(-7.5,-0.0)">
      <g id="lt5-inv-graph-q-__g-2">
        <svg xmlns:xlink="http://www.w3.org/1999/xlink" style="vertical-align: 0.000px" width="15.080px" height="12.256px" role="img" focusable="false" viewBox="0 -677 833 677" x="0.0" y="0.0">
          <defs>
            <path id="lt5-inv-graph-q-MJX-4-TEX-N-2D" d="M11 179V252H277V179H11Z"/>
            <path id="lt5-inv-graph-q-MJX-4-TEX-N-34" d="M462 0Q444 3 333 3Q217 3 199 0H190V46H221Q241 46 248 46T265 48T279 53T286 61Q287 63 287 115V165H28V211L179 442Q332 674 334 675Q336 677 355 677H373L379 671V211H471V165H379V114Q379 73 379 66T385 54Q393 47 442 46H471V0H462ZM293 211V545L74 212L183 211H293Z"/>
          </defs>
          <g stroke="currentColor" fill="currentColor" stroke-width="0" transform="scale(1,-1)">
            <g data-mml-node="math">
              <g data-mml-node="mtext" data-semantic-type="text" data-semantic-role="unknown" data-semantic-font="normal" data-semantic-annotation="clearspeak:unit" data-semantic-id="0" data-semantic-speech="hyphen 4">
                <use data-c="2D" xlink:href="#lt5-inv-graph-q-MJX-4-TEX-N-2D"/>
                <use data-c="34" xlink:href="#lt5-inv-graph-q-MJX-4-TEX-N-34" transform="translate(333,0)"/>
              </g>
            </g>
          </g>
        </svg>
      </g>
    </g>
    <g id="lt5-inv-graph-q-__label-3" transform="translate(83.0,146.0) translate(-7.5,-0.0)">
      <g id="lt5-inv-graph-q-__g-3">
        <svg xmlns:xlink="http://www.w3.org/1999/xlink" style="vertical-align: 0.000px" width="15.080px" height="12.056px" role="img" focusable="false" viewBox="0 -666 833 666" x="0.0" y="0.0">
          <defs>
            <path id="lt5-inv-graph-q-MJX-5-TEX-N-2D" d="M11 179V252H277V179H11Z"/>
            <path id="lt5-inv-graph-q-MJX-5-TEX-N-32" d="M109 429Q82 429 66 447T50 491Q50 562 103 614T235 666Q326 666 387 610T449 465Q449 422 429 383T381 315T301 241Q265 210 201 149L142 93L218 92Q375 92 385 97Q392 99 409 186V189H449V186Q448 183 436 95T421 3V0H50V19V31Q50 38 56 46T86 81Q115 113 136 137Q145 147 170 174T204 211T233 244T261 278T284 308T305 340T320 369T333 401T340 431T343 464Q343 527 309 573T212 619Q179 619 154 602T119 569T109 550Q109 549 114 549Q132 549 151 535T170 489Q170 464 154 447T109 429Z"/>
          </defs>
          <g stroke="currentColor" fill="currentColor" stroke-width="0" transform="scale(1,-1)">
            <g data-mml-node="math">
              <g data-mml-node="mtext" data-semantic-type="text" data-semantic-role="unknown" data-semantic-font="normal" data-semantic-annotation="clearspeak:unit" data-semantic-id="0" data-semantic-speech="hyphen 2">
                <use data-c="2D" xlink:href="#lt5-inv-graph-q-MJX-5-TEX-N-2D"/>
                <use data-c="32" xlink:href="#lt5-inv-graph-q-MJX-5-TEX-N-32" transform="translate(333,0)"/>
              </g>
            </g>
          </g>
        </svg>
      </g>
    </g>
    <g id="lt5-inv-graph-q-__label-4" transform="translate(187.0,146.0) translate(-4.5,-0.0)">
      <g id="lt5-inv-graph-q-__g-4">
        <svg xmlns:xlink="http://www.w3.org/1999/xlink" style="vertical-align: 0.000px" width="9.048px" height="12.056px" role="img" focusable="false" viewBox="0 -666 500 666" x="0.0" y="0.0">
          <defs>
            <path id="lt5-inv-graph-q-MJX-6-TEX-N-32" d="M109 429Q82 429 66 447T50 491Q50 562 103 614T235 666Q326 666 387 610T449 465Q449 422 429 383T381 315T301 241Q265 210 201 149L142 93L218 92Q375 92 385 97Q392 99 409 186V189H449V186Q448 183 436 95T421 3V0H50V19V31Q50 38 56 46T86 81Q115 113 136 137Q145 147 170 174T204 211T233 244T261 278T284 308T305 340T320 369T333 401T340 431T343 464Q343 527 309 573T212 619Q179 619 154 602T119 569T109 550Q109 549 114 549Q132 549 151 535T170 489Q170 464 154 447T109 429Z"/>
          </defs>
          <g stroke="currentColor" fill="currentColor" stroke-width="0" transform="scale(1,-1)">
            <g data-mml-node="math">
              <g data-mml-node="mtext" data-semantic-type="text" data-semantic-role="integer" data-semantic-font="normal" data-semantic-annotation="clearspeak:unit" data-semantic-id="0" data-semantic-speech="2">
                <use data-c="32" xlink:href="#lt5-inv-graph-q-MJX-6-TEX-N-32"/>
              </g>
            </g>
          </g>
        </svg>
      </g>
    </g>
    <g id="lt5-inv-graph-q-__label-5" transform="translate(239.0,146.0) translate(-4.5,-0.0)">
      <g id="lt5-inv-graph-q-__g-5">
        <svg xmlns:xlink="http://www.w3.org/1999/xlink" style="vertical-align: 0.000px" width="9.048px" height="12.256px" role="img" focusable="false" viewBox="0 -677 500 677" x="0.0" y="0.0">
          <defs>
            <path id="lt5-inv-graph-q-MJX-7-TEX-N-34" d="M462 0Q444 3 333 3Q217 3 199 0H190V46H221Q241 46 248 46T265 48T279 53T286 61Q287 63 287 115V165H28V211L179 442Q332 674 334 675Q336 677 355 677H373L379 671V211H471V165H379V114Q379 73 379 66T385 54Q393 47 442 46H471V0H462ZM293 211V545L74 212L183 211H293Z"/>
          </defs>
          <g stroke="currentColor" fill="currentColor" stroke-width="0" transform="scale(1,-1)">
            <g data-mml-node="math">
              <g data-mml-node="mtext" data-semantic-type="text" data-semantic-role="integer" data-semantic-font="normal" data-semantic-annotation="clearspeak:unit" data-semantic-id="0" data-semantic-speech="4">
                <use data-c="34" xlink:href="#lt5-inv-graph-q-MJX-7-TEX-N-34"/>
              </g>
            </g>
          </g>
        </svg>
      </g>
    </g>
    <g id="lt5-inv-graph-q-__label-6" transform="translate(124.0,239.0) translate(-15.1,-6.1)">
      <g id="lt5-inv-graph-q-__g-6">
        <svg xmlns:xlink="http://www.w3.org/1999/xlink" style="vertical-align: 0.000px" width="15.080px" height="12.256px" role="img" focusable="false" viewBox="0 -677 833 677" x="0.0" y="0.0">
          <defs>
            <path id="lt5-inv-graph-q-MJX-8-TEX-N-2D" d="M11 179V252H277V179H11Z"/>
            <path id="lt5-inv-graph-q-MJX-8-TEX-N-34" d="M462 0Q444 3 333 3Q217 3 199 0H190V46H221Q241 46 248 46T265 48T279 53T286 61Q287 63 287 115V165H28V211L179 442Q332 674 334 675Q336 677 355 677H373L379 671V211H471V165H379V114Q379 73 379 66T385 54Q393 47 442 46H471V0H462ZM293 211V545L74 212L183 211H293Z"/>
          </defs>
          <g stroke="currentColor" fill="currentColor" stroke-width="0" transform="scale(1,-1)">
            <g data-mml-node="math">
              <g data-mml-node="mtext" data-semantic-type="text" data-semantic-role="unknown" data-semantic-font="normal" data-semantic-annotation="clearspeak:unit" data-semantic-id="0" data-semantic-speech="hyphen 4">
                <use data-c="2D" xlink:href="#lt5-inv-graph-q-MJX-8-TEX-N-2D"/>
                <use data-c="34" xlink:href="#lt5-inv-graph-q-MJX-8-TEX-N-34" transform="translate(333,0)"/>
              </g>
            </g>
          </g>
        </svg>
      </g>
    </g>
    <g id="lt5-inv-graph-q-__label-7" transform="translate(124.0,187.0) translate(-15.1,-6.0)">
      <g id="lt5-inv-graph-q-__g-7">
        <svg xmlns:xlink="http://www.w3.org/1999/xlink" style="vertical-align: 0.000px" width="15.080px" height="12.056px" role="img" focusable="false" viewBox="0 -666 833 666" x="0.0" y="0.0">
          <defs>
            <path id="lt5-inv-graph-q-MJX-9-TEX-N-2D" d="M11 179V252H277V179H11Z"/>
            <path id="lt5-inv-graph-q-MJX-9-TEX-N-32" d="M109 429Q82 429 66 447T50 491Q50 562 103 614T235 666Q326 666 387 610T449 465Q449 422 429 383T381 315T301 241Q265 210 201 149L142 93L218 92Q375 92 385 97Q392 99 409 186V189H449V186Q448 183 436 95T421 3V0H50V19V31Q50 38 56 46T86 81Q115 113 136 137Q145 147 170 174T204 211T233 244T261 278T284 308T305 340T320 369T333 401T340 431T343 464Q343 527 309 573T212 619Q179 619 154 602T119 569T109 550Q109 549 114 549Q132 549 151 535T170 489Q170 464 154 447T109 429Z"/>
          </defs>
          <g stroke="currentColor" fill="currentColor" stroke-width="0" transform="scale(1,-1)">
            <g data-mml-node="math">
              <g data-mml-node="mtext" data-semantic-type="text" data-semantic-role="unknown" data-semantic-font="normal" data-semantic-annotation="clearspeak:unit" data-semantic-id="0" data-semantic-speech="hyphen 2">
                <use data-c="2D" xlink:href="#lt5-inv-graph-q-MJX-9-TEX-N-2D"/>
                <use data-c="32" xlink:href="#lt5-inv-graph-q-MJX-9-TEX-N-32" transform="translate(333,0)"/>
              </g>
            </g>
          </g>
        </svg>
      </g>
    </g>
    <g id="lt5-inv-graph-q-__label-8" transform="translate(124.0,83.0) translate(-9.0,-6.0)">
      <g id="lt5-inv-graph-q-__g-8">
        <svg xmlns:xlink="http://www.w3.org/1999/xlink" style="vertical-align: 0.000px" width="9.048px" height="12.056px" role="img" focusable="false" viewBox="0 -666 500 666" x="0.0" y="0.0">
          <defs>
            <path id="lt5-inv-graph-q-MJX-10-TEX-N-32" d="M109 429Q82 429 66 447T50 491Q50 562 103 614T235 666Q326 666 387 610T449 465Q449 422 429 383T381 315T301 241Q265 210 201 149L142 93L218 92Q375 92 385 97Q392 99 409 186V189H449V186Q448 183 436 95T421 3V0H50V19V31Q50 38 56 46T86 81Q115 113 136 137Q145 147 170 174T204 211T233 244T261 278T284 308T305 340T320 369T333 401T340 431T343 464Q343 527 309 573T212 619Q179 619 154 602T119 569T109 550Q109 549 114 549Q132 549 151 535T170 489Q170 464 154 447T109 429Z"/>
          </defs>
          <g stroke="currentColor" fill="currentColor" stroke-width="0" transform="scale(1,-1)">
            <g data-mml-node="math">
              <g data-mml-node="mtext" data-semantic-type="text" data-semantic-role="integer" data-semantic-font="normal" data-semantic-annotation="clearspeak:unit" data-semantic-id="0" data-semantic-speech="2">
                <use data-c="32" xlink:href="#lt5-inv-graph-q-MJX-10-TEX-N-32"/>
              </g>
            </g>
          </g>
        </svg>
      </g>
    </g>
    <g id="lt5-inv-graph-q-__label-9" transform="translate(124.0,31.0) translate(-9.0,-6.1)">
      <g id="lt5-inv-graph-q-__g-9">
        <svg xmlns:xlink="http://www.w3.org/1999/xlink" style="vertical-align: 0.000px" width="9.048px" height="12.256px" role="img" focusable="false" viewBox="0 -677 500 677" x="0.0" y="0.0">
          <defs>
            <path id="lt5-inv-graph-q-MJX-11-TEX-N-34" d="M462 0Q444 3 333 3Q217 3 199 0H190V46H221Q241 46 248 46T265 48T279 53T286 61Q287 63 287 115V165H28V211L179 442Q332 674 334 675Q336 677 355 677H373L379 671V211H471V165H379V114Q379 73 379 66T385 54Q393 47 442 46H471V0H462ZM293 211V545L74 212L183 211H293Z"/>
          </defs>
          <g stroke="currentColor" fill="currentColor" stroke-width="0" transform="scale(1,-1)">
            <g data-mml-node="math">
              <g data-mml-node="mtext" data-semantic-type="text" data-semantic-role="integer" data-semantic-font="normal" data-semantic-annotation="clearspeak:unit" data-semantic-id="0" data-semantic-speech="4">
                <use data-c="34" xlink:href="#lt5-inv-graph-q-MJX-11-TEX-N-34"/>
              </g>
            </g>
          </g>
        </svg>
      </g>
    </g>
  </g>
  <path id="lt5-inv-graph-q-__path-0" stroke="red" stroke-width="3" fill="none" d="M 45.0 57.4 L 46.8 63.5 L 48.6 69.6 L 50.4 75.5 L 52.2 81.3 L 54.0 86.9 L 55.8 92.5 L 57.6 97.9 L 59.4 103.2 L 61.2 108.4 L 63.0 113.4 L 64.8 118.3 L 66.6 123.1 L 68.4 127.8 L 70.2 132.3 L 72.0 136.7 L 73.8 141.0 L 75.6 145.2 L 77.4 149.3 L 79.2 153.2 L 81.0 157.0 L 82.8 160.6 L 84.6 164.2 L 86.4 167.6 L 88.2 170.9 L 90.0 174.1 L 91.8 177.1 L 93.6 180.1 L 95.4 182.9 L 97.2 185.5 L 99.0 188.1 L 100.8 190.5 L 102.6 192.8 L 104.4 195.0 L 106.2 197.1 L 108.0 199.0 L 109.8 200.8 L 111.6 202.5 L 113.4 204.0 L 115.2 205.5 L 117.0 206.8 L 118.8 208.0 L 120.6 209.0 L 122.4 209.9 L 124.2 210.8 L 126.0 211.4 L 127.8 212.0 L 129.6 212.4 L 131.4 212.8 L 133.2 212.9 L 135.0 213.0 L 136.8 212.9 L 138.6 212.8 L 140.4 212.4 L 142.2 212.0 L 144.0 211.4 L 145.8 210.8 L 147.6 209.9 L 149.4 209.0 L 151.2 208.0 L 153.0 206.8 L 154.8 205.5 L 156.6 204.0 L 158.4 202.5 L 160.2 200.8 L 162.0 199.0 L 163.8 197.1 L 165.6 195.0 L 167.4 192.8 L 169.2 190.5 L 171.0 188.1 L 172.8 185.5 L 174.6 182.9 L 176.4 180.1 L 178.2 177.1 L 180.0 174.1 L 181.8 170.9 L 183.6 167.6 L 185.4 164.2 L 187.2 160.6 L 189.0 157.0 L 190.8 153.2 L 192.6 149.3 L 194.4 145.2 L 196.2 141.0 L 198.0 136.7 L 199.8 132.3 L 201.6 127.8 L 203.4 123.1 L 205.2 118.3 L 207.0 113.4 L 208.8 108.4 L 210.6 103.2 L 212.4 97.9 L 214.2 92.5 L 216.0 86.9 L 217.8 81.3 L 219.6 75.5 L 221.4 69.6 L 223.2 63.5 L 225.0 57.4" clip-path="url(#lt5-inv-graph-q-__clipPath-1)"/>
  <g id="lt5-inv-graph-q-__label-10" transform="translate(70.0,31.0) translate(-32.9,-9.0)">
    <g id="lt5-inv-graph-q-__g-10">
      <svg xmlns:xlink="http://www.w3.org/1999/xlink" style="vertical-align: -4.528px" width="65.768px" height="18.096px" role="img" focusable="false" viewBox="0 -750 3633.6 1000" x="0.0" y="0.0">
        <defs>
          <path id="lt5-inv-graph-q-MJX-12-TEX-I-1D466" d="M21 287Q21 301 36 335T84 406T158 442Q199 442 224 419T250 355Q248 336 247 334Q247 331 231 288T198 191T182 105Q182 62 196 45T238 27Q261 27 281 38T312 61T339 94Q339 95 344 114T358 173T377 247Q415 397 419 404Q432 431 462 431Q475 431 483 424T494 412T496 403Q496 390 447 193T391 -23Q363 -106 294 -155T156 -205Q111 -205 77 -183T43 -117Q43 -95 50 -80T69 -58T89 -48T106 -45Q150 -45 150 -87Q150 -107 138 -122T115 -142T102 -147L99 -148Q101 -153 118 -160T152 -167H160Q177 -167 186 -165Q219 -156 247 -127T290 -65T313 -9T321 21L315 17Q309 13 296 6T270 -6Q250 -11 231 -11Q185 -11 150 11T104 82Q103 89 103 113Q103 170 138 262T173 379Q173 380 173 381Q173 390 173 393T169 400T158 404H154Q131 404 112 385T82 344T65 302T57 280Q55 278 41 278H27Q21 284 21 287Z"/>
          <path id="lt5-inv-graph-q-MJX-12-TEX-N-3D" d="M56 347Q56 360 70 367H707Q722 359 722 347Q722 336 708 328L390 327H72Q56 332 56 347ZM56 153Q56 168 72 173H708Q722 163 722 153Q722 140 707 133H70Q56 140 56 153Z"/>
          <path id="lt5-inv-graph-q-MJX-12-TEX-I-1D45E" d="M33 157Q33 258 109 349T280 441Q340 441 372 389Q373 390 377 395T388 406T404 418Q438 442 450 442Q454 442 457 439T460 434Q460 425 391 149Q320 -135 320 -139Q320 -147 365 -148H390Q396 -156 396 -157T393 -175Q389 -188 383 -194H370Q339 -192 262 -192Q234 -192 211 -192T174 -192T157 -193Q143 -193 143 -185Q143 -182 145 -170Q149 -154 152 -151T172 -148Q220 -148 230 -141Q238 -136 258 -53T279 32Q279 33 272 29Q224 -10 172 -10Q117 -10 75 30T33 157ZM352 326Q329 405 277 405Q242 405 210 374T160 293Q131 214 119 129Q119 126 119 118T118 106Q118 61 136 44T179 26Q233 26 290 98L298 109L352 326Z"/>
          <path id="lt5-inv-graph-q-MJX-12-TEX-N-2061" d=""/>
          <path id="lt5-inv-graph-q-MJX-12-TEX-N-28" d="M94 250Q94 319 104 381T127 488T164 576T202 643T244 695T277 729T302 750H315H319Q333 750 333 741Q333 738 316 720T275 667T226 581T184 443T167 250T184 58T225 -81T274 -167T316 -220T333 -241Q333 -250 318 -250H315H302L274 -226Q180 -141 137 -14T94 250Z"/>
          <path id="lt5-inv-graph-q-MJX-12-TEX-I-1D465" d="M52 289Q59 331 106 386T222 442Q257 442 286 424T329 379Q371 442 430 442Q467 442 494 420T522 361Q522 332 508 314T481 292T458 288Q439 288 427 299T415 328Q415 374 465 391Q454 404 425 404Q412 404 406 402Q368 386 350 336Q290 115 290 78Q290 50 306 38T341 26Q378 26 414 59T463 140Q466 150 469 151T485 153H489Q504 153 504 145Q504 144 502 134Q486 77 440 33T333 -11Q263 -11 227 52Q186 -10 133 -10H127Q78 -10 57 16T35 71Q35 103 54 123T99 143Q142 143 142 101Q142 81 130 66T107 46T94 41L91 40Q91 39 97 36T113 29T132 26Q168 26 194 71Q203 87 217 139T245 247T261 313Q266 340 266 352Q266 380 251 392T217 404Q177 404 142 372T93 290Q91 281 88 280T72 278H58Q52 284 52 289Z"/>
          <path id="lt5-inv-graph-q-MJX-12-TEX-N-29" d="M60 749L64 750Q69 750 74 750H86L114 726Q208 641 251 514T294 250Q294 182 284 119T261 12T224 -76T186 -143T145 -194T113 -227T90 -246Q87 -249 86 -250H74Q66 -250 63 -250T58 -247T55 -238Q56 -237 66 -225Q221 -64 221 250T66 725Q56 737 55 738Q55 746 60 749Z"/>
        </defs>
        <g stroke="currentColor" fill="currentColor" stroke-width="0" transform="scale(1,-1)">
          <g data-mml-node="math" data-semantic-type="relseq" data-semantic-role="equality" data-semantic-id="9" data-semantic-children="0,8" data-semantic-content="1" data-semantic-speech="y equals q left parenthesis x right parenthesis">
            <g data-mml-node="mi" data-semantic-type="identifier" data-semantic-role="latinletter" data-semantic-font="italic" data-semantic-annotation="clearspeak:simple" data-semantic-id="0" data-semantic-parent="9" data-semantic-speech="y">
              <use data-c="1D466" xlink:href="#lt5-inv-graph-q-MJX-12-TEX-I-1D466"/>
            </g>
            <g data-mml-node="mo" data-semantic-type="relation" data-semantic-role="equality" data-semantic-id="1" data-semantic-parent="9" data-semantic-operator="relseq,=" data-semantic-speech="equals" transform="translate(767.8,0)">
              <use data-c="3D" xlink:href="#lt5-inv-graph-q-MJX-12-TEX-N-3D"/>
            </g>
            <g data-mml-node="mrow" data-semantic-type="appl" data-semantic-role="simple function" data-semantic-annotation="clearspeak:simple" data-semantic-id="8" data-semantic-children="2,6" data-semantic-content="7,2" data-semantic-parent="9" data-semantic-speech="q left parenthesis x right parenthesis" transform="translate(1823.6,0)">
              <g data-mml-node="mi" data-semantic-type="identifier" data-semantic-role="simple function" data-semantic-font="italic" data-semantic-annotation="clearspeak:simple" data-semantic-id="2" data-semantic-parent="8" data-semantic-operator="appl" data-semantic-speech="q">
                <use data-c="1D45E" xlink:href="#lt5-inv-graph-q-MJX-12-TEX-I-1D45E"/>
              </g>
              <g data-mml-node="mo" data-semantic-type="punctuation" data-semantic-role="application" data-semantic-id="7" data-semantic-parent="8" data-semantic-added="true" data-semantic-operator="appl" data-semantic-speech="of" transform="translate(460,0)">
                <use data-c="2061" xlink:href="#lt5-inv-graph-q-MJX-12-TEX-N-2061"/>
              </g>
              <g data-mml-node="mrow" data-semantic-type="fenced" data-semantic-role="leftright" data-semantic-id="6" data-semantic-children="4" data-semantic-content="3,5" data-semantic-parent="8" data-semantic-speech="left parenthesis x right parenthesis" transform="translate(460,0)">
                <g data-mml-node="mo" data-semantic-type="fence" data-semantic-role="open" data-semantic-id="3" data-semantic-parent="6" data-semantic-operator="fenced" data-semantic-speech="left parenthesis">
                  <use data-c="28" xlink:href="#lt5-inv-graph-q-MJX-12-TEX-N-28"/>
                </g>
                <g data-mml-node="mi" data-semantic-type="identifier" data-semantic-role="latinletter" data-semantic-font="italic" data-semantic-annotation="clearspeak:simple" data-semantic-id="4" data-semantic-parent="6" data-semantic-speech="x" transform="translate(389,0)">
                  <use data-c="1D465" xlink:href="#lt5-inv-graph-q-MJX-12-TEX-I-1D465"/>
                </g>
                <g data-mml-node="mo" data-semantic-type="fence" data-semantic-role="close" data-semantic-id="5" data-semantic-parent="6" data-semantic-operator="fenced" data-semantic-speech="right parenthesis" transform="translate(961,0)">
                  <use data-c="29" xlink:href="#lt5-inv-graph-q-MJX-12-TEX-N-29"/>
                </g>
              </g>
            </g>
          </g>
        </g>
      </svg>
    </g>
  </g>
</svg>
